# xmcd
#
# Track frame offsets:
#	150
#	14424
#	29049
#	42816
#	55713
#	69310
#	82630
#	99954
#	115993
#	130215
#	144040
#	157763
#	170324
#	179576
#	193575
#	213781
#
# Disc length: 2989 seconds
#
# Revision: 4
# Processed by: cddbd v1.5.2PL0 Copyright (c) Steve Scherf et al.
# Submitted via: EasyCDDAExtractor 15.3.0.1
#
DISCID=c30bab10
DTITLE=Rocio Durcal - Su Historia Y Exitos Musicales Vol. 1 - CD 1
DYEAR=2004
DGENRE=Latin
TTITLE0=Tarde
TTITLE1=Fue Tan Poco Tu Cariño
TTITLE2=Jamas Me Cansare De Ti
TTITLE3=Amor Del Alma
TTITLE4=Fue Un Placer Conocerte
TTITLE5=Ya No Me Busques Mas
TTITLE6=Sola (Then)
TTITLE7=Una Vez Mas (Like A Child)
TTITLE8=En Algun Lugar
TTITLE9=Me Gustas Mucho
TTITLE10=Nadie Es Como Tu
TTITLE11=Me Nace Del Corazon
TTITLE12=Ya No Vuelvo A Molestarte
TTITLE13=Cuando Yo Quiera Has De Volver
TTITLE14=Nuevamente Sola
TTITLE15=Tu Abandono
EXTD=YEAR: 2004
EXTT0=
EXTT1=
EXTT2=
EXTT3=
EXTT4=
EXTT5=
EXTT6=
EXTT7=
EXTT8=
EXTT9=
EXTT10=
EXTT11=
EXTT12=
EXTT13=
EXTT14=
EXTT15=
PLAYORDER=
